<svg width="16" height="16" viewBox="0 0 16 16" fill="none" xmlns="http://www.w3.org/2000/svg">
<path d="M3.33333 2C2.97971 2 2.64057 2.14048 2.39052 2.39052C2.14048 2.64057 2 2.97971 2 3.33333" stroke-width="1.3" stroke-linecap="round" stroke-linejoin="round"/>
<path d="M12.6667 2C13.0203 2 13.3594 2.14048 13.6095 2.39052C13.8595 2.64057 14 2.97971 14 3.33333" stroke-width="1.3" stroke-linecap="round" stroke-linejoin="round"/>
<path d="M14 12.6666C14 13.0202 13.8595 13.3594 13.6095 13.6094C13.3594 13.8595 13.0203 14 12.6667 14" stroke-width="1.3" stroke-linecap="round" stroke-linejoin="round"/>
<path d="M3.33333 14C2.97971 14 2.64057 13.8595 2.39052 13.6094C2.14048 13.3594 2 13.0202 2 12.6666" stroke-width="1.3" stroke-linecap="round" stroke-linejoin="round"/>
<path d="M6 2H6.66667" stroke-width="1.3" stroke-linecap="round" stroke-linejoin="round"/>
<path d="M6 14H6.66667" stroke-width="1.3" stroke-linecap="round" stroke-linejoin="round"/>
<path d="M9.33331 2H9.99998" stroke-width="1.3" stroke-linecap="round" stroke-linejoin="round"/>
<path d="M9.33331 14H9.99998" stroke-width="1.3" stroke-linecap="round" stroke-linejoin="round"/>
<path d="M2 6V6.66667" stroke-width="1.3" stroke-linecap="round" stroke-linejoin="round"/>
<path d="M14 6V6.66667" stroke-width="1.3" stroke-linecap="round" stroke-linejoin="round"/>
<path d="M2 9.33337V10" stroke-width="1.3" stroke-linecap="round" stroke-linejoin="round"/>
<path d="M14 9.33337V10" stroke-width="1.3" stroke-linecap="round" stroke-linejoin="round"/>
</svg>
