<svg width="16" height="16" viewBox="0 0 16 16" fill="none" xmlns="http://www.w3.org/2000/svg">
<path d="M1.97998 8.61333C1.78315 8.73159 1.6202 8.89867 1.5069 9.09839C1.39361 9.29812 1.33382 9.52371 1.33331 9.75333V11.9133C1.33382 12.143 1.39361 12.3685 1.5069 12.5683C1.6202 12.768 1.78315 12.9351 1.97998 13.0533L3.97998 14.2533C4.18735 14.3779 4.42472 14.4437 4.66665 14.4437C4.90857 14.4437 5.14594 14.3779 5.35331 14.2533L7.36841 13.0453C7.76021 12.8104 7.99998 12.3871 7.99998 11.9303V9.73605C7.99998 9.27941 7.76039 8.85625 7.36882 8.62131L5.33577 7.40147C4.92393 7.15437 4.40941 7.15447 3.99767 7.40172L1.97998 8.61333Z" stroke-width="1.3" stroke-linecap="round" stroke-linejoin="round"/>
<path d="M4.66665 11L1.50665 9.10001" stroke-width="1.3" stroke-linecap="round" stroke-linejoin="round"/>
<path d="M4.66669 11L8.00002 9" stroke-width="1.3" stroke-linecap="round" stroke-linejoin="round"/>
<path d="M4.66669 11V14.4467" stroke-width="1.3" stroke-linecap="round" stroke-linejoin="round"/>
<path d="M8.63116 8.62131C8.23959 8.85625 8 9.27941 8 9.73605V11.9303C8 12.3871 8.23977 12.8104 8.63157 13.0453L10.6467 14.2533C10.854 14.3779 11.0914 14.4437 11.3333 14.4437C11.5753 14.4437 11.8126 14.3779 12.02 14.2533L14.02 13.0533C14.2168 12.9351 14.3798 12.768 14.4931 12.5683C14.6064 12.3685 14.6662 12.143 14.6667 11.9133V9.75333C14.6662 9.52371 14.6064 9.29812 14.4931 9.09839C14.3798 8.89867 14.2168 8.73159 14.02 8.61333L12.0023 7.40172C11.5906 7.15447 11.076 7.15437 10.6642 7.40147L8.63116 8.62131Z" stroke-width="1.3" stroke-linecap="round" stroke-linejoin="round"/>
<path d="M11.3333 11L8 9" stroke-width="1.3" stroke-linecap="round" stroke-linejoin="round"/>
<path d="M11.3333 11L14.4933 9.10001" stroke-width="1.3" stroke-linecap="round" stroke-linejoin="round"/>
<path d="M11.3333 11V14.4467" stroke-width="1.3" stroke-linecap="round" stroke-linejoin="round"/>
<path d="M5.31335 2.94666C5.11653 3.06491 4.95357 3.23199 4.84028 3.43172C4.72698 3.63144 4.66719 3.85704 4.66669 4.08666V6.26394C4.66669 6.72058 4.90628 7.14374 5.29784 7.37868L7.33118 8.59868C7.74286 8.8457 8.25718 8.8457 8.66886 8.59868L10.7022 7.37868C11.0938 7.14374 11.3334 6.72058 11.3334 6.26394V4.08666C11.3329 3.85704 11.2731 3.63144 11.1598 3.43172C11.0465 3.23199 10.8835 3.06491 10.6867 2.94666L8.68669 1.74666C8.47931 1.62207 8.24194 1.55624 8.00002 1.55624C7.7581 1.55624 7.52073 1.62207 7.31335 1.74666L5.31335 2.94666Z" stroke-width="1.3" stroke-linecap="round" stroke-linejoin="round"/>
<path d="M8.00003 5.33332L4.84003 3.43332" stroke-width="1.3" stroke-linecap="round" stroke-linejoin="round"/>
<path d="M8 5.33332L11.16 3.43332" stroke-width="1.3" stroke-linecap="round" stroke-linejoin="round"/>
<path d="M8 9.00001V5.33334" stroke-width="1.3" stroke-linecap="round" stroke-linejoin="round"/>
</svg>
