<svg width="16" height="16" viewBox="0 0 16 16" fill="none" xmlns="http://www.w3.org/2000/svg">
<path d="M4 14.6667V2.66668C4 2.48668 4 2.30001 4.04667 2.12001C4.08747 1.94043 4.17782 1.77589 4.30745 1.64508C4.43708 1.51427 4.60079 1.42244 4.78 1.38001C4.97333 1.33334 5.82 1.33334 6 1.33334H10.6667C10.8467 1.33334 11.0333 1.33334 11.2133 1.38001C11.3929 1.42082 11.5575 1.51116 11.6883 1.64079C11.8191 1.77042 11.9109 1.93414 11.9533 2.11334C12 2.30001 12 2.48668 12 2.66668V14.6667H4Z" stroke-width="1.4" stroke-linecap="round" stroke-linejoin="round"/>
<path d="M1.33339 9.33333V13.3333C1.33339 14.0667 1.93339 14.6667 2.66672 14.6667H4.00006V8H2.66672C2.48672 8 2.30006 8 2.12006 8.04667C1.94006 8.09333 1.77339 8.18 1.64006 8.31333C1.51339 8.44 1.42672 8.60667 1.38006 8.78667C1.34242 8.96633 1.32675 9.14989 1.33339 9.33333Z" stroke-width="1.4" stroke-linecap="round" stroke-linejoin="round"/>
<path d="M13.88 6.04665C13.7003 6.00902 13.5168 5.99335 13.3333 5.99999H12V14.6667H13.3333C13.687 14.6667 14.0261 14.5262 14.2761 14.2761C14.5262 14.0261 14.6667 13.6869 14.6667 13.3333V7.33332C14.6667 7.14665 14.6667 6.96665 14.62 6.78665C14.5733 6.60665 14.4867 6.43999 14.3533 6.30665C14.2267 6.17999 14.06 6.09332 13.88 6.04665Z" stroke-width="1.4" stroke-linecap="round" stroke-linejoin="round"/>
<path d="M6.66663 4H9.33329" stroke-width="1.4" stroke-linecap="round" stroke-linejoin="round"/>
<path d="M6.66663 6.66666H9.33329" stroke-width="1.4" stroke-linecap="round" stroke-linejoin="round"/>
<path d="M6.66663 9.33334H9.33329" stroke-width="1.4" stroke-linecap="round" stroke-linejoin="round"/>
<path d="M6.66663 12H9.33329" stroke-width="1.4" stroke-linecap="round" stroke-linejoin="round"/>
</svg>
