<svg width="32" height="32" viewBox="0 0 32 32" fill="none" xmlns="http://www.w3.org/2000/svg">
<path d="M32.0039 15.9993C32.0039 24.8358 24.8397 32 16.0032 32C7.16669 32 0.00390625 24.8358 0.00390625 15.9993C0.00390625 7.16281 7.16669 0 16.0032 0C24.8397 0 32.0039 7.16281 32.0039 15.9993Z" fill="#0F172A"/>
<path d="M10.0371 18.4004C10.9931 18.4004 11.7675 19.1749 11.7675 20.1294C11.7675 21.0854 10.9931 21.8598 10.0371 21.8598C9.08253 21.8598 8.30811 21.0854 8.30811 20.1294C8.30811 19.1749 9.08253 18.4004 10.0371 18.4004Z" fill="#0F172A"/>
<path d="M18.4511 7.46777C19.4071 7.46777 20.1815 8.2422 20.1815 9.19819C20.1815 10.1542 19.4071 10.9286 18.4511 10.9286C17.4951 10.9286 16.7207 10.1542 16.7207 9.19819C16.7207 8.2422 17.4951 7.46777 18.4511 7.46777Z" fill="#0F172A"/>
<path d="M10.9474 22.2207C9.93184 22.2193 8.91347 22.2193 7.89366 22.2193C7.26248 22.2136 6.72067 22.7654 6.7377 23.3753C6.72067 23.9852 7.26248 24.5369 7.89366 24.5312C8.92908 24.5312 9.96309 24.5312 10.9985 24.5312C11.9942 24.5 12.5516 23.9369 12.97 23.51C13.3842 23.0604 13.7033 22.5952 13.9076 22.3682C14.2295 22.0009 14.6933 21.7895 15.1813 21.791C17.6989 21.791 20.2151 21.791 22.7313 21.791C23.3625 21.7952 23.9043 21.2449 23.8873 20.6335C23.9043 20.0236 23.3625 19.4719 22.7313 19.4776C20.2151 19.4776 17.6989 19.4776 15.1813 19.4776C14.0267 19.4776 12.9289 19.9754 12.1672 20.8449C11.8296 21.2364 11.5403 21.6548 11.2765 21.9356C11.1488 22.0732 11.0339 22.1697 10.973 22.2065C10.9417 22.2264 10.9304 22.2292 10.9347 22.2278L10.9474 22.2207Z" fill="#0F172A"/>
<path d="M19.2705 11.2349C17.8238 13.2405 16.377 15.2447 14.9303 17.2489C14.5558 17.7566 14.6863 18.5197 15.1913 18.863C15.6763 19.2332 16.4409 19.1169 16.8054 18.602C18.2522 16.5978 19.6989 14.5937 21.1456 12.5895C21.5201 12.0817 21.3896 11.3186 20.8861 10.9754C20.3996 10.6038 19.6351 10.7215 19.2705 11.2349Z" fill="#0F172A"/>
<path d="M18.4512 14.3158C18.4512 9.69897 22.2936 9.51458 22.2936 14.3158C22.2936 16.5455 22.2936 19.0546 22.2936 19.0546H18.4512C18.4512 19.0546 18.4512 16.2944 18.4512 14.3158Z" fill="white"/>
<path d="M24.0891 22.2193C21.1502 22.2193 18.2113 22.2193 15.2739 22.2193C14.6427 22.2136 14.1009 22.7653 14.1165 23.3752C14.1009 23.9851 14.6427 24.5369 15.2739 24.5312C18.2113 24.5312 21.1502 24.5312 24.0891 24.5312C24.7203 24.5369 25.2621 23.9851 25.2451 23.3752C25.2621 22.7653 24.7203 22.2136 24.0891 22.2193Z" fill="#0F172A"/>
<path d="M10.0368 18.4006C10.9928 18.4006 11.7673 19.1751 11.7673 20.1296C11.7673 21.0856 10.9928 21.86 10.0368 21.86C9.08224 21.86 8.30781 21.0856 8.30781 20.1296C8.30781 19.1751 9.08224 18.4006 10.0368 18.4006ZM18.4506 7.46777C19.4066 7.46777 20.181 8.2422 20.181 9.19819C20.181 10.1542 19.4066 10.9286 18.4506 10.9286C17.4946 10.9286 16.7202 10.1542 16.7202 9.19819C16.7202 8.2422 17.4946 7.46777 18.4506 7.46777ZM10.9474 22.2203C9.93184 22.2189 8.91347 22.2189 7.89366 22.2189C7.26248 22.2132 6.72067 22.7649 6.7377 23.3748C6.72067 23.9848 7.26248 24.5365 7.89366 24.5308C8.92908 24.5308 9.96309 24.5308 10.9985 24.5308C11.9942 24.4996 12.5516 23.9365 12.97 23.5096C13.3842 23.06 13.7033 22.5947 13.9076 22.3678C14.2295 22.0004 14.6933 21.7891 15.1813 21.7905C17.6989 21.7905 20.2151 21.7905 22.7313 21.7905C23.3625 21.7948 23.9043 21.2444 23.8873 20.6331C23.9043 20.0232 23.3625 19.4715 22.7313 19.4772C20.2151 19.4772 17.6989 19.4772 15.1813 19.4772C14.0267 19.4772 12.9289 19.975 12.1672 20.8445C11.8296 21.2359 11.5403 21.6544 11.2765 21.9352C11.1488 22.0728 11.0339 22.1692 10.973 22.2061C10.9417 22.226 10.9304 22.2288 10.9347 22.2274L10.9474 22.2203ZM19.2705 11.235C17.8237 13.2405 16.377 15.2447 14.9302 17.2489C14.5558 17.7567 14.6862 18.5197 15.1912 18.863C15.6763 19.2332 16.4408 19.1169 16.8053 18.602C18.2521 16.5979 19.6988 14.5937 21.1455 12.5895C21.52 12.0817 21.3895 11.3187 20.886 10.9754C20.3995 10.6038 19.635 10.7215 19.2705 11.235ZM18.4506 14.3157C18.4506 9.69885 22.293 9.51446 22.293 14.3157C22.293 16.5454 22.293 19.0545 22.293 19.0545H18.4506C18.4506 19.0545 18.4506 16.2943 18.4506 14.3157ZM24.0887 22.2189C21.1498 22.2189 18.2109 22.2189 15.2734 22.2189C14.6423 22.2132 14.1005 22.7649 14.1161 23.3748C14.1005 23.9848 14.6423 24.5365 15.2734 24.5308C18.2109 24.5308 21.1498 24.5308 24.0887 24.5308C24.7198 24.5365 25.2617 23.9848 25.2447 23.3748C25.2617 22.7649 24.7198 22.2132 24.0887 22.2189Z" fill="white"/>
</svg>
