<svg width="16" height="16" viewBox="0 0 16 16" fill="none" xmlns="http://www.w3.org/2000/svg">
<path d="M13.3333 13V13.3333C13.3333 13.687 13.1929 14.0261 12.9428 14.2762C12.6928 14.5262 12.3536 14.6667 12 14.6667H4C3.64638 14.6667 3.30724 14.5262 3.05719 14.2762C2.80714 14.0261 2.66667 13.687 2.66667 13.3333V2.66668C2.66667 2.31305 2.80714 1.97392 3.05719 1.72387C3.30724 1.47382 3.64638 1.33334 4 1.33334H9.66667L12 3.66668" stroke-width="1.3" stroke-linecap="round" stroke-linejoin="round"/>
<path d="M5.33334 12H6" stroke-width="1.3" stroke-linecap="round" stroke-linejoin="round"/>
<path d="M12.28 6.40665C12.41 6.27664 12.5643 6.17352 12.7342 6.10316C12.9041 6.0328 13.0861 5.99658 13.27 5.99658C13.4539 5.99658 13.6359 6.0328 13.8058 6.10316C13.9756 6.17352 14.13 6.27664 14.26 6.40665C14.39 6.53666 14.4931 6.691 14.5635 6.86087C14.6339 7.03073 14.6701 7.21279 14.6701 7.39665C14.6701 7.58051 14.6339 7.76257 14.5635 7.93244C14.4931 8.1023 14.39 8.25664 14.26 8.38665L11.3 11.3333L8.66666 12L9.32666 9.36665L12.28 6.40665Z" stroke-width="1.3" stroke-linecap="round" stroke-linejoin="round"/>
</svg>
