<svg width="16" height="16" viewBox="0 0 16 16" fill="none" xmlns="http://www.w3.org/2000/svg">
<path d="M14.0001 1.33334L12.6667 2.66668M12.6667 2.66668L14.6667 4.66668L12.3334 7.00001L10.3334 5.00001M12.6667 2.66668L10.3334 5.00001M7.59339 7.74001C7.93762 8.07965 8.21126 8.48404 8.39856 8.92987C8.58587 9.37571 8.68313 9.85419 8.68475 10.3378C8.68637 10.8213 8.59231 11.3005 8.408 11.7475C8.22369 12.1946 7.95277 12.6008 7.61082 12.9428C7.26888 13.2847 6.86268 13.5556 6.4156 13.74C5.96852 13.9243 5.48939 14.0183 5.00582 14.0167C4.52224 14.0151 4.04376 13.9178 3.59792 13.7305C3.15209 13.5432 2.74771 13.2696 2.40806 12.9253C1.74015 12.2338 1.37057 11.3076 1.37892 10.3462C1.38728 9.38482 1.7729 8.46517 2.45273 7.78534C3.13256 7.10551 4.0522 6.71989 5.01359 6.71154C5.97498 6.70318 6.90119 7.07276 7.59273 7.74068L7.59339 7.74001ZM7.59339 7.74001L10.3334 5.00001" stroke-width="1.3" stroke-linecap="round" stroke-linejoin="round"/>
</svg>
