<svg width="74" height="32" viewBox="0 0 74 32" fill="none" xmlns="http://www.w3.org/2000/svg">
<path d="M42.6132 3.70141C44.485 -2.01083 52.0292 0.404105 50.3278 5.25075C49.5292 7.5242 48.8253 11.2122 48.8253 18.2818C48.8253 27.1162 45.5109 31.8079 38.8884 31.8079C36.3253 31.8079 34.2546 31.1444 32.6764 29.8208C31.0981 31.1444 29.0273 31.8079 26.4642 31.8079C19.8386 31.8079 16.5273 27.1162 16.5273 18.2818V11.8622C16.5526 10.1344 17.7963 9.2722 20.2521 9.2722C22.7363 9.2722 23.98 10.1546 23.98 11.9228V18.2818C23.98 21.8149 24.807 23.5831 26.4642 23.5831C28.1214 23.5831 28.9484 21.8149 28.9484 18.2818V14.5432C28.9484 12.775 30.1921 11.8926 32.6764 11.8926C35.1606 11.8926 36.401 12.775 36.401 14.5432V18.2818C36.401 21.8149 37.2312 23.5831 38.8884 23.5831C40.5425 23.5831 41.3726 21.8149 41.3726 18.2818C41.3726 11.2122 41.7483 6.3386 42.6132 3.70141Z"/>
<path d="M42.6132 3.70141C44.485 -2.01083 52.0292 0.404105 50.3278 5.25075C49.5292 7.5242 48.8253 11.2122 48.8253 18.2818C48.8253 27.1162 45.5109 31.8079 38.8884 31.8079C36.3253 31.8079 34.2546 31.1444 32.6764 29.8208C31.0981 31.1444 29.0273 31.8079 26.4642 31.8079C19.8386 31.8079 16.5273 27.1162 16.5273 18.2818V11.8622C16.5526 10.1344 17.7963 9.2722 20.2521 9.2722C22.7363 9.2722 23.98 10.1546 23.98 11.9228V18.2818C23.98 21.8149 24.807 23.5831 26.4642 23.5831C28.1214 23.5831 28.9484 21.8149 28.9484 18.2818V14.5432C28.9484 12.775 30.1921 11.8926 32.6764 11.8926C35.1606 11.8926 36.401 12.775 36.401 14.5432V18.2818C36.401 21.8149 37.2312 23.5831 38.8884 23.5831C40.5425 23.5831 41.3726 21.8149 41.3726 18.2818C41.3726 11.2122 41.7483 6.3386 42.6132 3.70141Z"/>
<path d="M69.6838 14.5599C70.2552 14.8933 70.6939 15.183 71.0064 15.4289C71.3158 15.6781 71.6251 15.9812 71.9376 16.3416C73.2949 18.2951 73.2949 20.3732 73.2949 22.1819C73.2949 25.0245 72.3132 27.3046 70.3656 29.0358C68.2823 30.8883 65.3562 31.8111 61.5904 31.8111C58.4338 31.8111 55.7981 30.9859 53.6737 29.349C51.8082 27.9109 50.877 26.365 50.877 24.7079C50.877 22.1953 52.307 20.939 55.1668 20.939C56.2148 20.939 57.3069 21.4274 58.4465 22.4109C59.586 23.3775 61.2021 23.8591 63.2981 23.8591C64.9553 23.8591 65.7855 23.3001 65.7855 22.1819C65.7855 21.5891 64.5481 19.9657 62.0765 19.4705C61.7261 19.3594 60.9559 19.1304 59.7659 18.7868C58.6674 18.4803 57.7804 18.2109 57.1081 17.9785C54.8291 17.1904 53.1813 16.1429 52.1586 14.8293C51.2653 13.6135 50.8423 10.9897 50.8423 9.34612C50.8423 6.69545 51.8208 4.57022 53.7747 2.96702C55.8581 1.24257 58.7811 0.380371 62.5468 0.380371C65.7034 0.380371 68.3423 1.1516 70.4667 2.67733C72.329 4.01782 73.2602 5.45263 73.2602 6.9851C73.2602 9.33264 71.8303 10.5081 68.9705 10.5081C67.9225 10.5081 66.8303 10.05 65.6908 9.14063C64.5512 8.22789 62.9351 7.77326 60.8392 7.77326C59.182 7.81368 58.3549 8.35926 58.3549 9.41009C58.3549 9.96246 59.567 11.6398 62.0386 12.0541C62.3858 12.1652 63.156 12.3841 64.3461 12.6973C65.4477 12.987 66.3347 13.2362 67.007 13.4417C68.2223 13.8425 69.1157 14.2163 69.6838 14.5599Z"/>
<path d="M69.6838 14.5599C70.2552 14.8933 70.6939 15.183 71.0064 15.4289C71.3158 15.6781 71.6251 15.9812 71.9376 16.3416C73.2949 18.2951 73.2949 20.3732 73.2949 22.1819C73.2949 25.0245 72.3132 27.3046 70.3656 29.0358C68.2823 30.8883 65.3562 31.8111 61.5904 31.8111C58.4338 31.8111 55.7981 30.9859 53.6737 29.349C51.8082 27.9109 50.877 26.365 50.877 24.7079C50.877 22.1953 52.307 20.939 55.1668 20.939C56.2148 20.939 57.3069 21.4274 58.4465 22.4109C59.586 23.3775 61.2021 23.8591 63.2981 23.8591C64.9553 23.8591 65.7855 23.3001 65.7855 22.1819C65.7855 21.5891 64.5481 19.9657 62.0765 19.4705C61.7261 19.3594 60.9559 19.1304 59.7659 18.7868C58.6674 18.4803 57.7804 18.2109 57.1081 17.9785C54.8291 17.1904 53.1813 16.1429 52.1586 14.8293C51.2653 13.6135 50.8423 10.9897 50.8423 9.34612C50.8423 6.69545 51.8208 4.57022 53.7747 2.96702C55.8581 1.24257 58.7811 0.380371 62.5468 0.380371C65.7034 0.380371 68.3423 1.1516 70.4667 2.67733C72.329 4.01782 73.2602 5.45263 73.2602 6.9851C73.2602 9.33264 71.8303 10.5081 68.9705 10.5081C67.9225 10.5081 66.8303 10.05 65.6908 9.14063C64.5512 8.22789 62.9351 7.77326 60.8392 7.77326C59.182 7.81368 58.3549 8.35926 58.3549 9.41009C58.3549 9.96246 59.567 11.6398 62.0386 12.0541C62.3858 12.1652 63.156 12.3841 64.3461 12.6973C65.4477 12.987 66.3347 13.2362 67.007 13.4417C68.2223 13.8425 69.1157 14.2163 69.6838 14.5599Z"/>
<path fill-rule="evenodd" clip-rule="evenodd" d="M27.7461 0.188477C27.7461 0.188477 36.4014 0.18847 36.4014 7.59148C36.4014 10.6901 34.195 10.6901 32.5978 10.6901C31.0005 10.6901 29.0245 10.6901 28.9519 7.60497C29.0151 2.38783 27.7461 0.188477 27.7461 0.188477Z"/>
<path fill-rule="evenodd" clip-rule="evenodd" d="M27.7461 0.188477C27.7461 0.188477 36.4014 0.18847 36.4014 7.59148C36.4014 10.6901 34.195 10.6901 32.5978 10.6901C31.0005 10.6901 29.0245 10.6901 28.9519 7.60497C29.0151 2.38783 27.7461 0.188477 27.7461 0.188477Z"/>
<path d="M14.9492 8.14381V29.3491C14.9492 31.1174 13.7087 31.9998 11.2213 31.9998C8.76549 31.9998 7.52187 31.1376 7.49662 29.4132V8.14381H2.52819C0.871001 8.14381 0.0439453 6.81685 0.0439453 4.16618C0.0439453 1.54246 0.852003 0.218789 2.46816 0.188477H21.5527C23.172 0.218789 23.9802 1.54246 23.9802 4.16618C23.9802 6.81685 23.1531 8.14381 21.4959 8.14381H14.9492Z"/>
<path d="M14.9492 8.14381V29.3491C14.9492 31.1174 13.7087 31.9998 11.2213 31.9998C8.76549 31.9998 7.52187 31.1376 7.49662 29.4132V8.14381H2.52819C0.871001 8.14381 0.0439453 6.81685 0.0439453 4.16618C0.0439453 1.54246 0.852003 0.218789 2.46816 0.188477H21.5527C23.172 0.218789 23.9802 1.54246 23.9802 4.16618C23.9802 6.81685 23.1531 8.14381 21.4959 8.14381H14.9492Z"/>
<path d="M42.6133 3.70135C44.4852 -2.01089 52.0293 0.404043 50.328 5.25069C49.5293 7.52413 48.8254 11.2121 48.8254 18.2817C48.8254 27.1162 45.5111 31.8078 38.8886 31.8078C36.3255 31.8078 34.2548 31.1444 32.6765 29.8207C31.0982 31.1444 29.0275 31.8078 26.4643 31.8078C19.8387 31.8078 16.5275 27.1162 16.5275 18.2817V11.8622C16.5527 10.1343 17.7964 9.27214 20.2522 9.27214C22.7365 9.27214 23.9802 10.1545 23.9802 11.9228V18.2817C23.9802 21.8148 24.8071 23.583 26.4643 23.583C28.1215 23.583 28.9486 21.8148 28.9486 18.2817V14.5431C28.9486 12.7749 30.1923 11.8925 32.6765 11.8925C35.1607 11.8925 36.4012 12.7749 36.4012 14.5431V18.2817C36.4012 21.8148 37.2314 23.583 38.8886 23.583C40.5426 23.583 41.3728 21.8148 41.3728 18.2817C41.3728 11.2121 41.7484 6.33854 42.6133 3.70135ZM69.684 14.56C70.2553 14.8934 70.6941 15.1831 71.0066 15.429C71.3159 15.6782 71.6253 15.9813 71.9378 16.3417C73.2951 18.2952 73.2951 20.3733 73.2951 22.182C73.2951 25.0246 72.3134 27.3047 70.3658 29.0359C68.2825 30.8884 65.3563 31.8112 61.5905 31.8112C58.434 31.8112 55.7982 30.986 53.6739 29.3491C51.8083 27.911 50.8772 26.3651 50.8772 24.708C50.8772 22.1954 52.3071 20.9391 55.167 20.9391C56.215 20.9391 57.3071 21.4275 58.4466 22.411C59.5861 23.3776 61.2023 23.8593 63.2982 23.8593C64.9554 23.8593 65.7856 23.3002 65.7856 22.182C65.7856 21.5892 64.5482 19.9658 62.0767 19.4707C61.7263 19.3595 60.9561 19.1305 59.766 18.7869C58.6676 18.4804 57.7806 18.211 57.1082 17.9786C54.8292 17.1905 53.1815 16.143 52.1588 14.8294C51.2655 13.6136 50.8424 10.9898 50.8424 9.34623C50.8424 6.69556 51.821 4.57033 53.7749 2.96713C55.8582 1.24268 58.7812 0.380479 62.547 0.380479C65.7035 0.380479 68.3425 1.15171 70.4668 2.67744C72.3292 4.01793 73.2603 5.45274 73.2603 6.98521C73.2603 9.33275 71.8305 10.5082 68.9706 10.5082C67.9226 10.5082 66.8304 10.0501 65.6909 9.14074C64.5514 8.22799 62.9353 7.77337 60.8393 7.77337C59.1821 7.81378 58.3551 8.35937 58.3551 9.4102C58.3551 9.96256 59.5672 11.6399 62.0387 12.0542C62.386 12.1653 63.1562 12.3842 64.3462 12.6974C65.4479 12.9871 66.3348 13.2363 67.0072 13.4418C68.2224 13.8426 69.1158 14.2164 69.684 14.56ZM27.7459 0.188477C27.7459 0.188477 36.4012 0.18847 36.4012 7.59148C36.4012 10.6901 34.1948 10.6901 32.5976 10.6901C31.0004 10.6901 29.0243 10.6901 28.9517 7.60496C29.0149 2.38783 27.7459 0.188477 27.7459 0.188477ZM14.9492 8.14381V29.3491C14.9492 31.1174 13.7087 31.9998 11.2213 31.9998C8.76549 31.9998 7.52187 31.1376 7.49662 29.4132V8.14381H2.52819C0.871001 8.14381 0.0439453 6.81685 0.0439453 4.16618C0.0439453 1.54246 0.852003 0.218789 2.46816 0.188477H21.5527C23.172 0.218789 23.9802 1.54246 23.9802 4.16618C23.9802 6.81685 23.1531 8.14381 21.4959 8.14381H14.9492Z"/>
<path d="M42.5726 3.50951C44.4444 -2.20273 51.9886 0.21221 50.2872 5.05886C49.4886 7.3323 48.7847 11.0203 48.7847 18.0899C48.7847 26.9277 45.4703 31.6161 38.8447 31.6161C36.2847 31.6161 34.214 30.9559 32.6357 29.6289C31.0575 30.9559 28.9868 31.6161 26.4237 31.6161C19.798 31.6161 16.4868 26.9277 16.4868 18.0899V11.6703C16.5121 9.94588 17.7525 9.08368 20.2115 9.08368C22.6957 9.08368 23.9394 9.96615 23.9394 11.7344V18.0899C23.9394 21.6264 24.7665 23.3912 26.4237 23.3912C28.0809 23.3912 28.9078 21.6264 28.9078 18.0899V14.3548C28.9078 12.5865 30.1515 11.7007 32.6357 11.7007C35.12 11.7007 36.3605 12.5865 36.3605 14.3548V18.0899C36.3605 21.6264 37.1906 23.3912 38.8447 23.3912C40.5019 23.3912 41.3289 21.6264 41.3289 18.0899C41.3289 11.0203 41.7077 6.15008 42.5726 3.50951Z"/>
<path d="M42.5726 3.50951C44.4444 -2.20273 51.9886 0.21221 50.2872 5.05886C49.4886 7.3323 48.7847 11.0203 48.7847 18.0899C48.7847 26.9277 45.4703 31.6161 38.8447 31.6161C36.2847 31.6161 34.214 30.9559 32.6357 29.6289C31.0575 30.9559 28.9868 31.6161 26.4237 31.6161C19.798 31.6161 16.4868 26.9277 16.4868 18.0899V11.6703C16.5121 9.94588 17.7525 9.08368 20.2115 9.08368C22.6957 9.08368 23.9394 9.96615 23.9394 11.7344V18.0899C23.9394 21.6264 24.7665 23.3912 26.4237 23.3912C28.0809 23.3912 28.9078 21.6264 28.9078 18.0899V14.3548C28.9078 12.5865 30.1515 11.7007 32.6357 11.7007C35.12 11.7007 36.3605 12.5865 36.3605 14.3548V18.0899C36.3605 21.6264 37.1906 23.3912 38.8447 23.3912C40.5019 23.3912 41.3289 21.6264 41.3289 18.0899C41.3289 11.0203 41.7077 6.15008 42.5726 3.50951Z"/>
<path d="M69.6432 14.3714C70.2146 14.7014 70.6533 14.9911 70.9627 15.2403C71.2752 15.4896 71.5846 15.7927 71.8971 16.1497C73.2544 18.1032 73.2543 20.1813 73.2543 21.99C73.2543 24.836 72.2726 27.1161 70.325 28.8473C68.2417 30.6964 65.3156 31.6226 61.5499 31.6226C58.3933 31.6226 55.7575 30.7941 53.63 29.1572C51.7677 27.7224 50.8364 26.1731 50.8364 24.5194C50.8364 22.0034 52.2664 20.7472 55.1262 20.7472C56.1742 20.7472 57.2663 21.2389 58.4059 22.219C59.5454 23.1856 61.1616 23.6673 63.2575 23.6673C64.9147 23.6673 65.7418 23.1082 65.7418 21.99C65.7418 21.3972 64.5075 19.7771 62.0359 19.2787C61.6855 19.1675 60.9154 18.9418 59.7254 18.5949C58.6269 18.2918 57.7398 18.019 57.0675 17.7866C54.7884 17.0019 53.1407 15.951 52.118 14.6408C51.2247 13.4249 50.8018 10.8012 50.8018 9.1576C50.8018 6.50693 51.7803 4.37833 53.7342 2.7785C55.8175 1.05068 58.7405 0.188477 62.5063 0.188477C65.6629 0.188477 68.2985 0.959708 70.4261 2.48881C72.2884 3.82593 73.2197 5.26411 73.2197 6.79658C73.2197 9.14412 71.7897 10.3163 68.9299 10.3163C67.8819 10.3163 66.7897 9.86157 65.6502 8.94882C64.5107 8.03944 62.8945 7.58474 60.7986 7.58474C59.1414 7.62515 58.3144 8.17081 58.3144 9.21828C58.3144 9.77065 59.5265 11.4513 61.9981 11.8655C62.3453 11.9733 63.1155 12.1923 64.3055 12.5055C65.4072 12.7952 66.2941 13.0444 66.9665 13.2532C68.1818 13.6507 69.0751 14.0244 69.6432 14.3714Z"/>
<path d="M69.6432 14.3714C70.2146 14.7014 70.6533 14.9911 70.9627 15.2403C71.2752 15.4896 71.5846 15.7927 71.8971 16.1497C73.2544 18.1032 73.2543 20.1813 73.2543 21.99C73.2543 24.836 72.2726 27.1161 70.325 28.8473C68.2417 30.6964 65.3156 31.6226 61.5499 31.6226C58.3933 31.6226 55.7575 30.7941 53.63 29.1572C51.7677 27.7224 50.8364 26.1731 50.8364 24.5194C50.8364 22.0034 52.2664 20.7472 55.1262 20.7472C56.1742 20.7472 57.2663 21.2389 58.4059 22.219C59.5454 23.1856 61.1616 23.6673 63.2575 23.6673C64.9147 23.6673 65.7418 23.1082 65.7418 21.99C65.7418 21.3972 64.5075 19.7771 62.0359 19.2787C61.6855 19.1675 60.9154 18.9418 59.7254 18.5949C58.6269 18.2918 57.7398 18.019 57.0675 17.7866C54.7884 17.0019 53.1407 15.951 52.118 14.6408C51.2247 13.4249 50.8018 10.8012 50.8018 9.1576C50.8018 6.50693 51.7803 4.37833 53.7342 2.7785C55.8175 1.05068 58.7405 0.188477 62.5063 0.188477C65.6629 0.188477 68.2985 0.959708 70.4261 2.48881C72.2884 3.82593 73.2197 5.26411 73.2197 6.79658C73.2197 9.14412 71.7897 10.3163 68.9299 10.3163C67.8819 10.3163 66.7897 9.86157 65.6502 8.94882C64.5107 8.03944 62.8945 7.58474 60.7986 7.58474C59.1414 7.62515 58.3144 8.17081 58.3144 9.21828C58.3144 9.77065 59.5265 11.4513 61.9981 11.8655C62.3453 11.9733 63.1155 12.1923 64.3055 12.5055C65.4072 12.7952 66.2941 13.0444 66.9665 13.2532C68.1818 13.6507 69.0751 14.0244 69.6432 14.3714Z"/>
<path fill-rule="evenodd" clip-rule="evenodd" d="M27.7051 0C27.7051 0 36.3603 -6.42408e-06 36.3603 7.403C36.3603 10.5016 34.1539 10.5016 32.5567 10.5016C30.9595 10.5016 28.9834 10.5016 28.9077 7.41312C28.974 2.19598 27.7051 0 27.7051 0Z"/>
<path fill-rule="evenodd" clip-rule="evenodd" d="M27.7051 0C27.7051 0 36.3603 -6.42408e-06 36.3603 7.403C36.3603 10.5016 34.1539 10.5016 32.5567 10.5016C30.9595 10.5016 28.9834 10.5016 28.9077 7.41312C28.974 2.19598 27.7051 0 27.7051 0Z"/>
<path d="M14.9084 7.95204V29.1607C14.9084 30.9256 13.6647 31.8114 11.1805 31.8114C8.72155 31.8114 7.48101 30.9492 7.45575 29.2213V7.95204H2.48733C0.830138 7.95204 0 6.625 0 3.97433C0 1.35398 0.811217 0.0269445 2.42738 0H21.5119C23.1312 0.0269445 23.9393 1.35398 23.9393 3.97433C23.9393 6.625 23.1123 7.95204 21.4551 7.95204H14.9084Z"/>
<path d="M14.9084 7.95204V29.1607C14.9084 30.9256 13.6647 31.8114 11.1805 31.8114C8.72155 31.8114 7.48101 30.9492 7.45575 29.2213V7.95204H2.48733C0.830138 7.95204 0 6.625 0 3.97433C0 1.35398 0.811217 0.0269445 2.42738 0H21.5119C23.1312 0.0269445 23.9393 1.35398 23.9393 3.97433C23.9393 6.625 23.1123 7.95204 21.4551 7.95204H14.9084Z"/>
<path d="M42.5725 3.5095C44.4443 -2.20274 51.9885 0.212195 50.2871 5.05884C49.4885 7.33229 48.7846 11.0203 48.7846 18.0899C48.7846 26.9277 45.4702 31.6161 38.8446 31.6161C36.2846 31.6161 34.2139 30.9559 32.6356 29.6289C31.0574 30.9559 28.9867 31.6161 26.4235 31.6161C19.7979 31.6161 16.4867 26.9277 16.4867 18.0899V11.6703C16.512 9.94587 17.7524 9.08366 20.2114 9.08366C22.6956 9.08366 23.9393 9.96614 23.9393 11.7344V18.0899C23.9393 21.6263 24.7664 23.3912 26.4235 23.3912C28.0807 23.3912 28.9077 21.6263 28.9077 18.0899V14.3547C28.9077 12.5865 30.1514 11.7007 32.6356 11.7007C35.1199 11.7007 36.3604 12.5865 36.3604 14.3547V18.0899C36.3604 21.6263 37.1905 23.3912 38.8446 23.3912C40.5018 23.3912 41.3288 21.6263 41.3288 18.0899C41.3288 11.0203 41.7076 6.15006 42.5725 3.5095ZM69.6431 14.3715C70.2145 14.7016 70.6532 14.9913 70.9626 15.2405C71.2751 15.4897 71.5845 15.7928 71.897 16.1499C73.2543 18.1033 73.2542 20.1815 73.2542 21.9901C73.2542 24.8361 72.2725 27.1163 70.3249 28.8475C68.2416 30.6965 65.3155 31.6227 61.5498 31.6227C58.3932 31.6227 55.7574 30.7943 53.6299 29.1574C51.7675 27.7226 50.8363 26.1733 50.8363 24.5195C50.8363 22.0036 52.2663 20.7473 55.1261 20.7473C56.1741 20.7473 57.2662 21.239 58.4058 22.2191C59.5453 23.1858 61.1615 23.6674 63.2574 23.6674C64.9146 23.6674 65.7417 23.1083 65.7417 21.9901C65.7417 21.3973 64.5074 19.7773 62.0358 19.2788C61.6854 19.1677 60.9153 18.942 59.7253 18.5951C58.6268 18.292 57.7397 18.0192 57.0674 17.7868C54.7883 17.002 53.1406 15.9512 52.1179 14.641C51.2246 13.4251 50.8017 10.8014 50.8017 9.15775C50.8017 6.50708 51.7802 4.37849 53.7341 2.77865C55.8174 1.05084 58.7404 0.188631 62.5062 0.188631C65.6628 0.188631 68.2984 0.959863 70.426 2.48896C72.2883 3.82609 73.2196 5.26426 73.2196 6.79673C73.2196 9.14428 71.7896 10.3164 68.9298 10.3164C67.8818 10.3164 66.7896 9.86172 65.6501 8.94897C64.5106 8.0396 62.8944 7.58489 60.7985 7.58489C59.1413 7.62531 58.3143 8.17097 58.3143 9.21844C58.3143 9.7708 59.5264 11.4514 61.998 11.8657C62.3452 11.9735 63.1154 12.1924 64.3054 12.5057C65.4071 12.7953 66.294 13.0446 66.9664 13.2534C68.1817 13.6508 69.075 14.0246 69.6431 14.3715ZM27.7051 0C27.7051 0 36.3604 -6.42408e-06 36.3604 7.403C36.3604 10.5016 34.1539 10.5016 32.5567 10.5016C30.9595 10.5016 28.9835 10.5016 28.9077 7.41312C28.974 2.19598 27.7051 0 27.7051 0ZM14.9084 7.95204V29.1607C14.9084 30.9256 13.6647 31.8114 11.1805 31.8114C8.72155 31.8114 7.48101 30.9492 7.45575 29.2213V7.95204H2.48733C0.830138 7.95204 0 6.625 0 3.97433C0 1.35398 0.811217 0.0269445 2.42738 0H21.5119C23.1312 0.0269445 23.9393 1.35398 23.9393 3.97433C23.9393 6.625 23.1123 7.95204 21.4551 7.95204H14.9084Z"/>
</svg>
