<svg width="16" height="16" viewBox="0 0 16 16" fill="none" xmlns="http://www.w3.org/2000/svg">
<path d="M12 5.6665C12 4.60564 11.5786 3.58822 10.8284 2.83808C10.0783 2.08793 9.06087 1.6665 8 1.6665C6.93913 1.6665 5.92172 2.08793 5.17157 2.83808C4.42143 3.58822 4 4.60564 4 5.6665C4 10.3332 2 11.6665 2 11.6665H14C14 11.6665 12 10.3332 12 5.6665Z" stroke-width="1.5" stroke-linecap="round" stroke-linejoin="round"/>
<path d="M9.15335 14.333C9.03614 14.5351 8.86791 14.7028 8.6655 14.8194C8.46309 14.9359 8.2336 14.9973 8.00001 14.9973C7.76643 14.9973 7.53694 14.9359 7.33453 14.8194C7.13212 14.7028 6.96389 14.5351 6.84668 14.333" stroke-width="1.5" stroke-linecap="round" stroke-linejoin="round"/>
</svg>
