<svg width="13" height="16" viewBox="0 0 13 16" fill="none" xmlns="http://www.w3.org/2000/svg">
<path d="M8.33366 1.6665H4.33366C3.96547 1.6665 3.66699 1.96498 3.66699 2.33317V3.6665C3.66699 4.03469 3.96547 4.33317 4.33366 4.33317H8.33366C8.70185 4.33317 9.00033 4.03469 9.00033 3.6665V2.33317C9.00033 1.96498 8.70185 1.6665 8.33366 1.6665Z" stroke-width="1.4" stroke-linecap="round" stroke-linejoin="round"/>
<path d="M9 2.99982H10.3333C10.687 2.99982 11.0261 3.14029 11.2761 3.39034C11.5262 3.64039 11.6667 3.97953 11.6667 4.33315V13.6665C11.6667 14.0201 11.5262 14.3592 11.2761 14.6093C11.0261 14.8593 10.687 14.9998 10.3333 14.9998H2.33333C1.97971 14.9998 1.64057 14.8593 1.39052 14.6093C1.14048 14.3592 1 14.0201 1 13.6665V4.33315C1 3.97953 1.14048 3.64039 1.39052 3.39034C1.64057 3.14029 1.97971 2.99982 2.33333 2.99982H3.66667" stroke-width="1.4" stroke-linecap="round" stroke-linejoin="round"/>
<path d="M6.33337 7.6665H9.00004" stroke-width="1.4" stroke-linecap="round" stroke-linejoin="round"/>
<path d="M6.33337 10.9998H9.00004" stroke-width="1.4" stroke-linecap="round" stroke-linejoin="round"/>
<path d="M3.66699 7.6665H3.67366" stroke-width="1.4" stroke-linecap="round" stroke-linejoin="round"/>
<path d="M3.66699 11H3.67366" stroke-width="1.4" stroke-linecap="round" stroke-linejoin="round"/>
</svg>
