<svg width="16" height="16" viewBox="0 0 16 16" fill="none" xmlns="http://www.w3.org/2000/svg">
<path d="M2 4.66668V6.00001C2.53043 6.00001 3.03914 6.21072 3.41421 6.5858C3.78929 6.96087 4 7.46958 4 8.00001C4 8.53044 3.78929 9.03915 3.41421 9.41422C3.03914 9.7893 2.53043 10 2 10V11.3333C2 12.0667 2.6 12.6667 3.33333 12.6667H12.6667C13.0203 12.6667 13.3594 12.5262 13.6095 12.2762C13.8595 12.0261 14 11.687 14 11.3333V10C13.4696 10 12.9609 9.7893 12.5858 9.41422C12.2107 9.03915 12 8.53044 12 8.00001C12 7.46958 12.2107 6.96087 12.5858 6.5858C12.9609 6.21072 13.4696 6.00001 14 6.00001V4.66668C14 4.31305 13.8595 3.97392 13.6095 3.72387C13.3594 3.47382 13.0203 3.33334 12.6667 3.33334H3.33333C2.97971 3.33334 2.64057 3.47382 2.39052 3.72387C2.14048 3.97392 2 4.31305 2 4.66668Z" stroke="#3F3F46" stroke-width="1.3" stroke-linecap="round" stroke-linejoin="round"/>
<path d="M8.66666 3.33334V4.66668" stroke-width="1.3" stroke-linecap="round" stroke-linejoin="round"/>
<path d="M8.66666 11.3333V12.6667" stroke-width="1.3" stroke-linecap="round" stroke-linejoin="round"/>
<path d="M8.66666 7.33334V8.66668" stroke-width="1.3" stroke-linecap="round" stroke-linejoin="round"/>
</svg>
