<svg width="16" height="16" viewBox="0 0 16 16" fill="none" xmlns="http://www.w3.org/2000/svg">
<path d="M10.6666 14V12.6667C10.6666 11.9594 10.3857 11.2811 9.8856 10.781C9.3855 10.281 8.70722 10 7.99998 10H3.99998C3.29274 10 2.61446 10.281 2.11436 10.781C1.61426 11.2811 1.33331 11.9594 1.33331 12.6667V14" stroke-width="1.3" stroke-linecap="round" stroke-linejoin="round"/>
<path d="M5.99998 7.33333C7.47274 7.33333 8.66665 6.13943 8.66665 4.66667C8.66665 3.19391 7.47274 2 5.99998 2C4.52722 2 3.33331 3.19391 3.33331 4.66667C3.33331 6.13943 4.52722 7.33333 5.99998 7.33333Z" stroke-width="1.3" stroke-linecap="round" stroke-linejoin="round"/>
<path d="M12.6666 8.66667C13.403 8.66667 14 8.06971 14 7.33333C14 6.59695 13.403 6 12.6666 6C11.9303 6 11.3333 6.59695 11.3333 7.33333C11.3333 8.06971 11.9303 8.66667 12.6666 8.66667Z" stroke-width="1.3" stroke-linecap="round" stroke-linejoin="round"/>
<path d="M12.6667 5.33334V6.00001" stroke-width="1.3" stroke-linecap="round" stroke-linejoin="round"/>
<path d="M12.6667 8.66666V9.33332" stroke-width="1.3" stroke-linecap="round" stroke-linejoin="round"/>
<path d="M14.4 6.33334L13.82 6.66668" stroke-width="1.3" stroke-linecap="round" stroke-linejoin="round"/>
<path d="M11.5133 8L10.9333 8.33333" stroke-width="1.3" stroke-linecap="round" stroke-linejoin="round"/>
<path d="M14.4 8.33333L13.82 8" stroke-width="1.3" stroke-linecap="round" stroke-linejoin="round"/>
<path d="M11.5133 6.66668L10.9333 6.33334" stroke-width="1.3" stroke-linecap="round" stroke-linejoin="round"/>
</svg>
